<svg width="256" height="256" viewBox="0 0 256 256" fill="none" xmlns="http://www.w3.org/2000/svg">
<rect width="256" height="256" fill="white"/>
<g clip-path="url(#clip0)">
<path d="M161.95 121.89C163.217 121.89 164.484 121.89 165.752 121.89C166.581 121.89 166.846 122.076 166.864 122.997C166.891 124.301 166.873 125.605 166.864 126.908C166.864 127.075 166.827 127.252 166.782 127.418C166.672 127.859 166.344 127.967 165.979 127.967C165.04 127.977 164.101 127.977 163.153 127.987C161.394 127.987 159.644 127.987 157.884 127.987C157.693 127.987 157.629 127.948 157.629 127.722C157.638 125.86 157.638 123.987 157.629 122.125C157.629 121.929 157.684 121.87 157.857 121.88C159.233 121.89 160.592 121.89 161.95 121.89Z" fill="#004EEA"/>
<path d="M181.942 115.528C181.942 123.919 181.942 132.319 181.942 140.71C181.933 140.779 181.914 140.847 181.905 140.916C181.832 141.377 181.787 141.837 181.687 142.288C181.559 142.867 181.386 143.425 181.103 143.945C180.793 144.533 180.438 145.072 180.018 145.572C179.371 146.337 178.605 146.925 177.739 147.385C176.91 147.827 176.034 148.101 175.114 148.199C174.867 148.228 174.621 148.258 174.384 148.287C139.259 148.287 104.134 148.287 69.0088 148.287C69.0088 137.309 69.0088 126.33 69.0088 115.352C69.0179 115.312 69.0361 115.254 69.0453 115.205C69.0817 114.646 69.182 114.107 69.3461 113.568C69.6013 112.734 69.9569 111.97 70.4583 111.284C70.8047 110.803 71.1876 110.372 71.6161 109.98C72.1266 109.519 72.6735 109.147 73.2752 108.843C74.3783 108.274 75.5452 108 76.785 108C84.3607 108 91.9455 108 99.5211 108C124.409 108 149.287 108 174.175 108.01C174.703 108.01 175.232 108.078 175.743 108.167C176.481 108.294 177.183 108.578 177.858 108.941C178.778 109.441 179.581 110.098 180.237 110.95C180.62 111.45 180.957 111.999 181.231 112.568C181.559 113.244 181.75 113.979 181.851 114.734C181.896 115.009 181.914 115.263 181.942 115.528ZM100.752 127.977C100.752 130.143 100.752 132.261 100.752 134.407C100.843 134.407 100.916 134.407 100.998 134.407C101.727 134.407 102.466 134.407 103.195 134.407C103.459 134.407 103.459 134.407 103.459 134.692C103.459 136.632 103.459 138.563 103.459 140.504C103.459 140.798 103.459 140.798 103.724 140.798C105.848 140.798 107.972 140.798 110.096 140.798C110.37 140.798 110.37 140.798 110.37 140.504C110.37 138.554 110.37 136.603 110.37 134.652C110.37 134.446 110.424 134.397 110.607 134.397C113.478 134.407 116.359 134.397 119.231 134.397C119.486 134.397 119.486 134.397 119.486 134.672C119.486 136.623 119.486 138.573 119.486 140.524C119.486 140.73 119.541 140.798 119.741 140.798C121.893 140.789 124.044 140.789 126.186 140.798C126.387 140.798 126.442 140.73 126.442 140.524C126.442 132.261 126.442 123.987 126.442 115.724C126.442 115.509 126.378 115.46 126.186 115.46C124.053 115.469 121.911 115.46 119.778 115.46C119.495 115.46 119.495 115.46 119.495 115.763C119.495 119.743 119.495 123.723 119.495 127.703C119.495 127.918 119.44 127.967 119.249 127.967C116.386 127.957 113.524 127.957 110.661 127.957C110.379 127.957 110.379 127.957 110.379 127.654C110.379 123.674 110.379 119.694 110.379 115.714C110.379 115.509 110.333 115.44 110.133 115.44C108.027 115.45 105.912 115.44 103.806 115.45C103.459 115.469 103.459 115.391 103.459 115.842C103.459 119.802 103.459 123.762 103.459 127.712C103.459 127.918 103.423 127.987 103.213 127.987C102.475 127.967 101.736 127.977 100.998 127.977C100.925 127.977 100.843 127.977 100.752 127.977ZM148.056 134.407C148.157 134.407 148.23 134.407 148.293 134.407C149.05 134.407 149.807 134.417 150.563 134.407C150.755 134.407 150.8 134.466 150.8 134.662C150.791 136.613 150.8 138.563 150.8 140.514C150.8 140.798 150.8 140.798 151.065 140.798C153.162 140.798 155.258 140.798 157.355 140.798C157.638 140.798 157.638 140.798 157.638 140.504C157.638 138.563 157.638 136.613 157.638 134.672C157.638 134.466 157.674 134.397 157.884 134.397C160.755 134.407 163.618 134.397 166.49 134.407C167.739 134.407 168.96 134.29 170.154 133.858C171.039 133.545 171.814 133.045 172.452 132.319C172.971 131.721 173.318 130.996 173.509 130.222C173.655 129.624 173.746 128.996 173.755 128.379C173.783 126.164 173.783 123.938 173.764 121.723C173.755 120.851 173.682 119.988 173.4 119.145C173.135 118.39 172.78 117.724 172.242 117.165C171.814 116.724 171.312 116.401 170.765 116.155C169.662 115.675 168.504 115.469 167.328 115.469C161.895 115.45 156.471 115.46 151.037 115.46C150.965 115.46 150.901 115.469 150.81 115.469C150.81 115.587 150.81 115.685 150.81 115.783C150.81 119.763 150.81 123.742 150.81 127.722C150.81 127.918 150.764 127.987 150.573 127.987C149.816 127.977 149.059 127.987 148.303 127.977C148.111 127.977 148.056 128.036 148.056 128.242C148.066 130.212 148.056 132.182 148.056 134.162C148.056 134.241 148.056 134.309 148.056 134.407ZM84.4883 140.808C86.5942 140.808 88.7 140.818 90.7968 140.808C91.3255 140.808 91.8543 140.779 92.383 140.73C93.6137 140.612 94.7806 140.289 95.8381 139.573C96.6586 139.014 97.2694 138.25 97.6614 137.309C97.9805 136.544 98.1537 135.721 98.1537 134.888C98.1628 133.339 98.2722 131.78 98.0625 130.232C97.9075 129.085 97.6067 128.036 96.85 127.163C96.4216 126.663 95.9293 126.301 95.3641 126.026C94.261 125.497 93.085 125.311 91.8908 125.301C89.5843 125.281 87.2779 125.291 84.9715 125.291C84.7891 125.291 84.6068 125.262 84.4336 125.203C84.233 125.134 84.0507 124.997 84.0507 124.732C84.0416 123.978 84.0416 123.233 84.0507 122.478C84.0507 122.292 84.1328 122.105 84.3151 122.047C84.5248 121.978 84.7436 121.909 84.9532 121.909C88.5815 121.9 92.2189 121.9 95.8472 121.9C96.1207 121.9 96.1207 121.9 96.1207 121.606C96.1207 119.665 96.1207 117.714 96.1207 115.773C96.1207 115.479 96.1207 115.479 95.8381 115.479C91.8725 115.479 87.9069 115.479 83.9413 115.479C83.6769 115.479 83.4217 115.499 83.1573 115.518C81.9904 115.607 80.8782 115.881 79.839 116.459C78.7086 117.096 77.9337 118.067 77.4779 119.331C77.2408 119.988 77.1588 120.694 77.1588 121.39C77.1497 123.037 77.1405 124.674 77.1588 126.32C77.1679 127.134 77.2773 127.938 77.6146 128.702C77.8972 129.33 78.2527 129.859 78.7541 130.3C79.3649 130.839 80.076 131.163 80.8327 131.378C81.9357 131.692 83.0662 131.751 84.2057 131.751C86.1748 131.751 88.1348 131.751 90.104 131.751C90.268 131.751 90.4321 131.751 90.5962 131.77C90.9974 131.8 91.2161 131.976 91.2253 132.29C91.2344 132.8 91.2344 133.3 91.2253 133.809C91.2161 134.084 91.0794 134.26 90.815 134.319C90.6327 134.358 90.4413 134.397 90.2589 134.397C85.9834 134.397 81.7169 134.397 77.4414 134.397C77.1588 134.397 77.1588 134.397 77.1588 134.711C77.1588 136.632 77.1588 138.554 77.1588 140.485C77.1588 140.828 77.1588 140.828 77.4687 140.828C79.8299 140.808 82.1545 140.808 84.4883 140.808ZM145.449 132.859C145.449 130.3 145.449 127.752 145.449 125.193C145.449 124.987 145.394 124.909 145.194 124.919C143.061 124.928 140.918 124.919 138.785 124.919C138.493 124.919 138.493 124.919 138.493 125.213C138.493 130.31 138.493 135.397 138.493 140.494C138.493 140.798 138.493 140.798 138.776 140.798C140.909 140.798 143.052 140.798 145.185 140.798C145.221 140.798 145.276 140.808 145.303 140.798C145.358 140.769 145.413 140.72 145.44 140.661C145.467 140.592 145.449 140.504 145.449 140.436C145.449 137.907 145.449 135.388 145.449 132.859ZM129.003 132.859C129.003 135.417 129.003 137.965 129.003 140.524C129.003 140.808 129.003 140.808 129.268 140.808C131.401 140.808 133.525 140.808 135.658 140.808C135.932 140.808 135.932 140.808 135.932 140.524C135.932 135.417 135.932 130.31 135.932 125.203C135.932 124.928 135.932 124.928 135.667 124.928C133.534 124.928 131.392 124.928 129.259 124.928C129.003 124.928 129.003 124.928 129.003 125.203C129.003 127.752 129.003 130.31 129.003 132.859ZM141.958 122.321C143.052 122.321 144.136 122.321 145.23 122.321C145.404 122.321 145.449 122.262 145.449 122.076C145.449 119.949 145.44 117.822 145.449 115.695C145.449 115.499 145.385 115.45 145.212 115.45C143.061 115.46 140.9 115.46 138.749 115.45C138.548 115.45 138.493 115.509 138.493 115.724C138.502 117.832 138.493 119.929 138.493 122.037C138.493 122.311 138.493 122.311 138.758 122.311C139.824 122.321 140.891 122.321 141.958 122.321ZM129.022 122.321C129.104 122.321 129.176 122.321 129.249 122.321C131.401 122.321 133.543 122.321 135.695 122.331C135.895 122.331 135.941 122.272 135.941 122.066C135.932 119.959 135.941 117.861 135.932 115.754C135.932 115.479 135.932 115.479 135.686 115.479C133.543 115.479 131.401 115.479 129.259 115.479C129.186 115.479 129.104 115.479 129.022 115.479C129.022 117.763 129.022 120.027 129.022 122.321Z" fill="#004EEA"/>
</g>
<defs>
<clipPath id="clip0">
<rect width="118" height="39" fill="white" transform="translate(69 108)"/>
</clipPath>
</defs>
</svg>
